<?xml version="1.0" encoding="UTF-8"?>
<svg id="Layer_1" data-name="Layer 1" xmlns="http://www.w3.org/2000/svg" xmlns:xlink="http://www.w3.org/1999/xlink" viewBox="0 0 210 53">
  <defs>
    <style>
      .cls-1 {
        fill: #d72027;
      }

      .cls-2 {
        fill: none;
      }

      .cls-3 {
        fill: url(#radial-gradient);
      }

      .cls-4 {
        fill: #201b4f;
      }

      .cls-5 {
        fill: #28458a;
      }

      .cls-6 {
        clip-path: url(#clippath);
      }
    </style>
    <clipPath id="clippath">
      <path class="cls-2" d="M6.44,10.57c0,1.15.93,2.09,2.09,2.09s2.09-.93,2.09-2.09-.93-2.09-2.09-2.09-2.09.93-2.09,2.09"/>
    </clipPath>
    <radialGradient id="radial-gradient" cx="-118.59" cy="180.83" fx="-118.59" fy="180.83" r=".45" gradientTransform="translate(754.28 1146.39) scale(6.29 -6.28)" gradientUnits="userSpaceOnUse">
      <stop offset="0" stop-color="#fff"/>
      <stop offset=".05" stop-color="#eff1f7"/>
      <stop offset=".15" stop-color="#c8cde3"/>
      <stop offset=".28" stop-color="#8894c3"/>
      <stop offset=".4" stop-color="#495ca4"/>
      <stop offset=".49" stop-color="#4558a0"/>
      <stop offset=".58" stop-color="#394e95"/>
      <stop offset=".64" stop-color="#2e448b"/>
      <stop offset=".72" stop-color="#253057"/>
      <stop offset=".8" stop-color="#1e1f29"/>
      <stop offset=".84" stop-color="#1c1918"/>
      <stop offset="1" stop-color="#1c1918"/>
    </radialGradient>
  </defs>
  <path class="cls-5" d="M5.56,17.79h5.2l5.02,9.96,1.76-9.96h5.25l-3.18,18.01h-5.25l-5-9.89-1.74,9.89H2.38l3.18-18.01Z"/>
  <path class="cls-5" d="M24.69,17.79h5.58l-3.18,18.01h-5.58l3.18-18.01Z"/>
  <path class="cls-5" d="M32.26,17.79h10.42c1.74,0,2.99.43,3.77,1.29.78.86,1.06,1.92.83,3.19-.19,1.06-.68,1.98-1.48,2.74-.53.51-1.25.91-2.15,1.2,1.24.31,2.1.85,2.57,1.6.48.76.61,1.71.41,2.86-.16.93-.53,1.77-1.1,2.52-.57.75-1.26,1.34-2.09,1.77-.51.27-1.25.47-2.22.59-1.28.16-2.13.25-2.54.25h-9.61l3.18-18.01ZM36.63,24.86h2.42c.87,0,1.5-.15,1.89-.45.39-.3.64-.73.74-1.3.09-.52,0-.93-.29-1.23-.29-.29-.85-.44-1.7-.44h-2.46l-.6,3.42ZM35.38,31.94h2.84c.96,0,1.66-.17,2.12-.51.45-.34.73-.8.83-1.37.09-.53-.03-.96-.36-1.28-.33-.32-.99-.49-1.96-.49h-2.83l-.64,3.65Z"/>
  <path class="cls-5" d="M50.25,17.79h7.32l.89,10.96,4.74-10.96h7.32l-3.18,18.01h-4.56l2.42-13.74-5.93,13.74h-4.13l-1.08-13.74-2.42,13.74h-4.56l3.18-18.01Z"/>
  <path class="cls-4" d="M80.8,23.24v-4.62h-.99v-.83h3.28v.83h-.97v4.62h-1.31Z"/>
  <path class="cls-4" d="M84.54,23.24v-5.44h1.3v2.24h1.13v-2.24h1.3v5.44h-1.3v-2.41h-1.13v2.41h-1.3Z"/>
  <path class="cls-4" d="M89.72,23.23v-5.44h2.81v.77h-1.5v1.58h1.16v.76h-1.16v1.58h1.51v.75h-2.83Z"/>
  <path class="cls-1" d="M122.03,35.8c-.82,0-1.46-.14-1.91-.43-.45-.28-.77-.69-.96-1.23-.18-.54-.27-1.19-.27-1.95v-7.48h2.18v7.79c0,.27.02.54.06.8.04.26.13.47.27.63.14.16.35.24.63.24s.51-.08.65-.24c.14-.16.22-.37.26-.63.04-.26.05-.53.05-.8v-7.79h2.18v7.48c0,.77-.09,1.42-.27,1.95-.18.54-.5.95-.96,1.23-.45.28-1.09.43-1.91.43Z"/>
  <path class="cls-1" d="M129.52,35.81v-11.1h1.54l2.41,5.78v-5.78h1.82v11.1h-1.47l-2.41-6.14v6.14h-1.88Z"/>
  <path class="cls-1" d="M139.63,35.81v-11.1h2.19v11.1h-2.19Z"/>
  <path class="cls-1" d="M148.22,35.81l-2.06-11.1h1.91l1.28,7.67,1.2-7.67h1.99l-2.06,11.1h-2.27Z"/>
  <path class="cls-1" d="M156.9,35.81v-11.1h4.72v1.56h-2.51v2.95h1.94v1.58h-1.94v3.48h2.51v1.53h-4.72Z"/>
  <path class="cls-1" d="M165.96,35.81v-11.1h2.81c.73,0,1.36.08,1.88.25.52.17.92.47,1.2.9.28.43.42,1.02.42,1.78,0,.46-.04.86-.11,1.21-.08.35-.21.66-.4.92s-.46.47-.81.62l1.5,5.41h-2.26l-1.24-5.03h-.78v5.03h-2.21ZM168.17,29.44h.64c.36,0,.64-.06.84-.18.2-.12.35-.3.43-.54.08-.24.13-.54.13-.9,0-.51-.09-.9-.27-1.17-.18-.27-.52-.4-1.02-.4h-.75v3.19Z"/>
  <path class="cls-1" d="M179.66,35.8c-.67,0-1.23-.12-1.67-.37-.45-.24-.78-.61-1.01-1.11-.23-.49-.36-1.12-.39-1.89l1.9-.32c.02.45.06.82.14,1.12.08.3.19.52.35.67s.35.22.58.22c.29,0,.48-.09.58-.27.1-.18.15-.38.15-.61,0-.45-.11-.84-.33-1.14-.22-.31-.51-.62-.86-.93l-1.12-.98c-.4-.34-.73-.72-.98-1.15-.25-.43-.38-.95-.38-1.58,0-.89.26-1.57.78-2.05.52-.48,1.24-.72,2.15-.72.54,0,.99.09,1.34.27.35.18.62.42.81.72.19.3.33.62.4.98.08.35.12.7.14,1.05l-1.88.28c-.02-.33-.05-.62-.09-.87s-.12-.45-.24-.59c-.12-.14-.3-.21-.54-.21-.26,0-.45.1-.57.29-.12.19-.19.4-.19.63,0,.38.09.7.26.94.17.25.41.5.72.77l1.1.96c.45.39.84.84,1.17,1.34.33.5.49,1.12.49,1.86,0,.51-.12.97-.35,1.38-.23.41-.55.73-.97.96-.41.23-.9.35-1.46.35Z"/>
  <path class="cls-1" d="M186.78,35.81v-11.1h2.19v11.1h-2.19Z"/>
  <path class="cls-1" d="M194.99,35.8v-9.4h-1.67v-1.68h5.53v1.68h-1.64v9.4h-2.22Z"/>
  <path class="cls-1" d="M205.31,35.81v-4.4l-2.11-6.7h2.07l1.16,3.9,1.08-3.9h2.01l-2.09,6.7v4.4h-2.13Z"/>
  <path class="cls-4" d="M84.81,25.1c-.44-.26-1.05-.39-1.83-.39s-1.44.15-1.91.44c-.47.29-.8.71-.98,1.25-.19.54-.28,1.18-.28,1.93v3.88c0,.71.09,1.34.28,1.88.19.54.52.96.98,1.26.47.3,1.1.45,1.91.45s1.41-.14,1.85-.42c.44-.28.74-.66.92-1.15.18-.48.27-1.04.27-1.68v-.89h-2.14v1.05c0,.26-.02.5-.05.73-.03.23-.11.42-.23.55-.12.14-.32.21-.61.21-.26,0-.46-.06-.6-.18-.14-.12-.23-.29-.28-.52-.05-.23-.07-.49-.07-.79v-4.91c0-.28.02-.53.05-.75.04-.23.12-.41.25-.55.13-.14.35-.21.64-.21s.5.07.62.21c.12.14.19.32.22.53.03.22.04.45.04.7v1.01h2.14v-.91c0-.62-.09-1.17-.27-1.64-.18-.47-.49-.84-.94-1.09Z"/>
  <rect class="cls-4" x="90.36" y="24.71" width="2.19" height="11.1"/>
  <polygon class="cls-4" points="96.89 26.4 98.56 26.4 98.56 35.81 100.78 35.81 100.78 26.4 102.43 26.4 102.43 24.71 96.89 24.71 96.89 26.4"/>
  <polygon class="cls-4" points="111.09 24.71 110.01 28.61 108.85 24.71 106.77 24.71 108.89 31.41 108.89 35.81 111.01 35.81 111.01 31.41 113.1 24.71 111.09 24.71"/>
  <rect class="cls-1" x="74.85" y="13.45" width=".61" height="26.7"/>
  <g class="cls-6">
    <rect class="cls-3" x="5.81" y="7.85" width="5.44" height="5.44" transform="translate(-4.48 14.49) rotate(-67.89)"/>
  </g>
  <path class="cls-4" d="M.48,10.57l7.88,7,7.31-7.64s-3.86,2.6-5.43,3.45c-.74.4-2.22.54-3.95,0-1.74-.55-5.81-2.8-5.81-2.8"/>
</svg>